<?xml version="1.0" standalone="no"?>
<!DOCTYPE svg PUBLIC "-//W3C//DTD SVG 20010904//EN"
 "http://www.w3.org/TR/2001/REC-SVG-20010904/DTD/svg10.dtd">
<svg version="1.0" xmlns="http://www.w3.org/2000/svg"
 width="1024.000000pt" height="1024.000000pt" viewBox="0 0 1024.000000 1024.000000"
 preserveAspectRatio="xMidYMid meet">

<g transform="translate(0.000000,1024.000000) scale(0.100000,-0.100000)"
fill="#000000" stroke="none">
<path d="M4760 9954 c-357 -31 -557 -60 -790 -116 -703 -167 -1309 -454 -1845
-872 -596 -465 -1069 -1026 -1392 -1653 -299 -579 -447 -1055 -519 -1663 -21
-185 -30 -722 -15 -915 29 -364 115 -771 243 -1150 318 -942 963 -1823 1753
-2396 402 -291 884 -539 1351 -694 806 -268 1629 -314 2494 -139 262 54 554
139 745 219 55 23 124 45 153 48 64 8 140 41 204 90 26 20 83 55 127 77 304
152 675 400 921 615 383 334 791 827 1036 1251 204 353 361 715 474 1094 132
441 187 791 197 1246 18 859 -133 1518 -521 2269 -250 484 -521 864 -881 1234
-388 399 -819 709 -1340 966 -506 249 -1053 409 -1605 470 -137 15 -682 28
-790 19z m453 -213 c6 -6 -38 -204 -48 -219 -4 -5 -171 -32 -202 -32 l-33 0 0
63 c0 34 -7 87 -15 117 -18 67 -18 63 -1 57 7 -3 19 0 25 6 23 23 251 29 274
8z m412 -15 c487 -75 1068 -254 1410 -434 100 -53 135 -92 135 -150 0 -23 -24
-86 -66 -176 -37 -78 -92 -202 -124 -276 -100 -233 -116 -265 -151 -294 -31
-26 -38 -28 -94 -23 -33 2 -85 14 -115 24 l-55 20 2 49 c3 72 -16 250 -33 318
-88 341 -371 610 -745 705 -46 12 -146 29 -221 39 l-138 17 6 35 c10 62 35
119 61 140 14 11 28 20 32 20 3 0 47 -7 96 -14z m-758 -43 c-3 -10 -5 -2 -5
17 0 19 2 27 5 18 2 -10 2 -26 0 -35z m-159 -16 c4 -44 10 -41 -128 -56 -358
-41 -831 -168 -1112 -300 -37 -17 -69 -31 -72 -31 -8 0 -36 57 -36 73 0 22 70
53 350 153 294 105 752 204 925 201 l70 -2 3 -38z m-1536 -280 c11 -12 31 -49
45 -82 76 -181 183 -451 183 -461 0 -7 -19 -19 -42 -29 -117 -46 -490 -257
-645 -365 -49 -33 -115 -79 -148 -102 -33 -23 -71 -52 -85 -65 -14 -13 -28
-23 -31 -23 -4 0 -25 -15 -47 -32 -21 -18 -51 -42 -64 -53 -173 -136 -474
-432 -619 -606 -142 -173 -251 -328 -403 -576 l-38 -62 -32 13 c-78 34 -255
122 -289 144 -83 55 -103 153 -54 264 78 177 355 569 589 837 124 141 397 410
533 525 232 196 490 377 760 531 289 167 346 188 387 142z m2448 -8 c95 -13
204 -42 282 -75 131 -55 293 -189 365 -301 36 -57 39 -69 21 -76 -8 -3 -6 -6
4 -6 26 -1 69 -93 65 -135 -3 -24 1 -36 15 -45 32 -20 22 -40 -17 -34 -21 3
-35 2 -35 -5 0 -5 10 -8 22 -4 17 4 20 2 15 -12 -4 -10 -7 -22 -7 -27 0 -5 -7
-9 -16 -9 -14 0 -14 3 -4 15 10 12 10 15 -2 15 -13 0 -58 82 -58 107 0 6 -7
16 -16 24 -8 7 -13 21 -10 32 3 13 0 17 -9 13 -8 -3 -20 8 -29 29 -18 37 -111
140 -100 110 5 -13 4 -16 -4 -11 -7 4 -12 14 -12 22 0 8 -4 13 -9 10 -5 -3
-15 2 -22 11 -27 32 -132 104 -197 134 -36 16 -97 37 -136 45 -69 15 -201 19
-259 9 -69 -13 -183 -56 -245 -93 -79 -47 -187 -157 -227 -231 -16 -28 -30
-50 -31 -48 -2 2 -8 91 -14 198 -6 107 -15 213 -19 236 -6 29 -5 46 3 52 15
12 228 49 341 59 102 10 235 6 345 -9z m-1187 -79 c15 -7 27 -16 27 -20 0 -3
-20 -11 -45 -18 -60 -16 -131 -85 -141 -137 -10 -57 1 -154 52 -450 51 -302
49 -286 99 -595 93 -574 94 -583 75 -710 -6 -36 -19 -128 -30 -205 -23 -156
-42 -272 -60 -360 l-12 -59 -33 84 c-99 254 -203 518 -240 615 -73 187 -129
331 -219 557 -47 120 -86 219 -86 222 0 3 -13 33 -28 68 -16 35 -48 115 -72
178 -24 63 -83 211 -132 328 -99 237 -119 292 -112 303 18 30 512 186 661 209
81 12 262 6 296 -10z m120 -170 c26 -20 32 -41 76 -250 25 -118 61 -300 71
-360 5 -25 13 -70 18 -100 6 -30 20 -104 31 -165 11 -60 40 -222 66 -359 25
-137 44 -249 43 -250 -57 -38 -82 -46 -116 -36 -21 5 -53 10 -73 10 -24 0 -39
5 -43 15 -3 8 -21 108 -40 223 -19 114 -51 304 -71 422 -109 651 -126 764
-121 796 13 67 103 98 159 54z m3055 -157 c94 -63 172 -116 172 -118 0 -2 -15
1 -32 6 -80 22 -211 -21 -508 -168 -69 -34 -126 -61 -126 -60 -1 1 8 22 20 47
12 25 43 95 70 155 65 147 121 262 136 280 16 20 52 1 268 -142z m-1856 88
c156 -54 283 -181 340 -336 27 -74 36 -242 18 -324 -55 -255 -330 -455 -584
-426 -276 31 -477 247 -493 530 -6 108 11 188 62 290 98 193 286 301 505 291
59 -3 116 -12 152 -25z m2293 -416 c162 -143 433 -428 458 -482 9 -20 0 -33
-77 -118 -49 -52 -91 -95 -95 -95 -4 0 -32 22 -62 48 -72 64 -158 128 -246
185 -55 35 -73 52 -73 69 -2 172 -22 443 -34 472 -14 34 -14 36 2 27 9 -5 67
-53 127 -106z m-298 56 c41 -31 45 -50 55 -254 12 -264 8 -270 -133 -228 -61
19 -139 35 -294 62 -96 16 -139 35 -175 75 -40 46 -46 75 -23 121 16 34 33 45
153 105 296 147 355 164 417 119z m-1361 -58 c-10 -10 -19 5 -10 18 6 11 8 11
12 0 2 -7 1 -15 -2 -18z m-26 -13 c0 -5 -4 -10 -10 -10 -5 0 -10 5 -10 10 0 6
5 10 10 10 6 0 10 -4 10 -10z m-3324 -253 c3 -211 97 -367 276 -458 67 -34
164 -59 228 -59 42 1 168 21 216 35 17 5 23 1 32 -22 6 -15 34 -89 63 -163 28
-74 69 -180 90 -235 40 -103 47 -131 26 -105 -23 29 -109 79 -190 111 -390
151 -789 -146 -764 -569 11 -191 108 -352 272 -451 87 -53 157 -73 270 -78
123 -6 203 12 295 67 170 102 270 258 289 455 l6 60 89 -225 c159 -404 243
-612 309 -771 66 -158 125 -314 134 -358 7 -29 5 -28 -112 21 -107 45 -105 43
-105 92 0 87 -64 218 -146 299 -161 159 -435 153 -610 -14 l-40 -39 -40 14
c-21 8 -88 36 -149 61 -60 25 -128 52 -150 59 -44 15 -138 51 -170 66 -11 5
-101 41 -200 81 -536 212 -741 294 -860 344 -44 18 -90 36 -103 40 -12 3 -20
9 -18 13 2 4 -6 7 -17 8 -12 1 -60 18 -107 38 -47 20 -114 48 -150 62 -217 85
-285 114 -283 121 11 33 257 409 318 485 l21 25 2 -59 c3 -76 45 -208 89 -281
132 -219 422 -323 655 -234 189 72 315 223 355 426 16 78 16 92 1 180 -22 126
-70 221 -158 310 -107 109 -272 178 -407 169 -59 -4 -63 -3 -45 11 11 9 57 48
103 87 74 64 141 116 325 254 97 73 328 216 354 219 3 1 6 -41 6 -92z m2046
-322 c27 -30 72 -71 100 -92 28 -20 46 -39 39 -41 -18 -6 -91 41 -147 96 -52
49 -134 165 -134 188 0 6 -7 15 -16 18 -12 5 -13 8 -2 20 11 11 21 2 61 -60
27 -41 71 -99 99 -129z m2308 75 c344 -54 593 -137 748 -252 115 -85 225 -219
264 -320 21 -55 22 -69 8 -120 -13 -46 -63 -76 -175 -106 -44 -12 -114 -31
-155 -42 -253 -69 -588 -149 -980 -236 -63 -14 -142 -32 -175 -40 -106 -25
-427 -94 -600 -129 -66 -13 -205 -43 -310 -65 -227 -49 -264 -49 -311 3 -44
48 -50 103 -25 247 21 119 67 249 124 350 166 293 474 541 812 652 93 30 263
70 340 79 102 11 281 3 435 -21z m1266 -126 c10 -14 33 -45 50 -68 92 -124
284 -414 284 -429 0 -2 28 -53 61 -113 74 -131 277 -539 320 -643 l31 -75 -38
-33 c-55 -47 -333 -223 -429 -271 -95 -47 -276 -125 -280 -120 -2 2 0 34 4 72
5 48 12 71 24 78 56 31 113 116 125 186 16 90 -5 164 -67 236 -23 26 -41 55
-41 66 0 36 -40 146 -74 202 -32 53 -34 64 -33 135 0 59 -5 90 -21 126 -17 39
-19 53 -10 78 25 72 -9 189 -93 315 l-47 72 49 68 c55 76 125 144 150 144 9 0
25 -12 35 -26z m-6163 -276 c70 -32 140 -97 171 -156 22 -43 2 -43 -50 1 -93
78 -168 108 -275 109 -73 0 -137 -14 -169 -37 -8 -6 -28 -17 -43 -25 -28 -14
-88 -75 -138 -140 -27 -36 -49 -35 -49 3 1 68 107 200 195 242 114 53 245 55
358 3z m2217 -278 c7 -13 9 -55 6 -113 -5 -89 -17 -694 -17 -909 0 -126 14
-168 59 -168 56 0 56 0 64 257 24 828 29 917 49 938 19 19 19 19 40 -2 22 -21
22 -26 27 -580 5 -616 5 -613 63 -613 61 0 58 -24 62 597 4 580 7 613 42 613
8 0 21 -10 29 -22 15 -25 17 -67 37 -778 9 -320 12 -377 26 -392 18 -21 73
-24 91 -6 16 16 16 346 1 805 -6 188 -9 353 -5 367 7 28 27 34 45 13 10 -13
43 -170 56 -272 3 -27 15 -88 25 -135 93 -419 109 -561 74 -693 -38 -147 -178
-282 -342 -329 -75 -21 -222 -32 -222 -16 0 6 -6 8 -14 5 -16 -6 -160 29 -191
46 -11 7 -27 12 -35 12 -9 0 -40 50 -80 130 l-65 130 1 115 c0 63 6 153 12
200 7 47 15 105 17 130 21 186 87 649 95 668 12 27 36 29 50 2z m-1032 -69
c39 -10 90 -30 114 -44 56 -33 118 -95 118 -119 0 -23 -5 -23 -38 1 -94 65
-248 103 -346 83 -126 -25 -207 -85 -277 -204 -46 -78 -69 -88 -69 -30 0 47
46 144 94 198 43 49 132 99 212 118 80 19 109 19 192 -3z m4715 -320 c12 -47
-67 -136 -149 -167 -35 -13 -47 -14 -59 -4 -28 23 -15 44 44 79 33 18 76 51
97 72 42 43 59 48 67 20z m-7263 -242 c250 -112 606 -260 893 -372 44 -17 81
-36 84 -43 2 -7 -4 -32 -15 -56 -11 -23 -23 -53 -26 -65 -4 -13 -13 -23 -20
-23 -57 0 -738 237 -924 321 -34 16 -65 29 -68 29 -3 0 -71 32 -150 72 -128
64 -143 74 -138 92 7 22 71 143 85 162 6 7 34 -2 86 -28 43 -21 130 -61 193
-89z m5792 -48 c-1 -12 -16 -43 -34 -69 -132 -192 -393 -285 -623 -222 -105
28 -205 84 -205 115 0 25 31 24 96 -5 92 -42 170 -60 253 -60 158 0 293 61
421 191 76 78 97 89 92 50z m1741 -118 c20 -67 -56 -153 -133 -153 -21 0 -66
10 -101 21 -84 28 -171 28 -230 1 -65 -30 -88 -55 -129 -134 -64 -125 -116
-142 -249 -84 -47 20 -98 36 -119 36 -52 -1 -112 -31 -147 -74 -65 -80 -94
-104 -136 -111 -36 -6 -47 -3 -92 28 -96 66 -165 75 -230 32 -20 -14 -37 -30
-37 -34 0 -5 -17 -27 -39 -50 -34 -36 -44 -41 -83 -41 -36 0 -56 8 -102 41
-60 43 -118 58 -171 45 -14 -4 -62 -40 -106 -81 -65 -61 -86 -75 -112 -75 -32
0 -68 19 -97 51 -37 41 -93 69 -138 69 -68 0 -122 -31 -176 -101 -25 -33 -58
-64 -72 -70 -67 -25 -154 31 -154 99 0 43 28 94 64 117 46 30 190 47 436 50
213 3 245 5 340 29 110 27 190 37 505 61 140 11 249 27 414 60 352 72 564 142
728 242 50 30 89 46 115 48 21 1 41 4 43 7 3 3 49 5 102 4 l97 -1 9 -32z
m-7807 -97 c256 -126 493 -218 908 -352 174 -56 206 -69 206 -82 0 -5 -22 -31
-50 -60 -27 -28 -58 -68 -69 -90 -11 -21 -26 -43 -33 -50 -21 -17 -434 -25
-1212 -22 l-119 0 7 43 c4 23 9 57 11 76 3 19 8 38 12 43 3 6 7 28 9 51 1 22
6 43 11 46 4 3 9 24 10 45 1 22 6 42 10 45 5 3 10 15 10 26 2 24 59 199 77
234 7 14 11 31 9 38 -8 23 26 73 51 73 12 0 81 -29 152 -64z m8629 -119 c47
-125 132 -525 114 -540 -2 -3 -74 -8 -160 -12 l-156 -7 -5 64 c-13 157 -130
254 -273 227 -53 -10 -169 -60 -196 -85 -9 -8 -48 -19 -85 -25 -38 -5 -80 -14
-93 -20 -13 -5 -26 -7 -29 -4 -3 2 53 32 124 65 71 34 137 65 147 70 41 23 57
31 147 75 52 26 114 60 138 76 68 46 142 80 155 73 7 -4 9 -4 5 0 -4 5 1 16
10 26 20 20 125 91 129 87 1 -2 14 -33 28 -70z m-1097 -48 c31 -11 72 -25 91
-31 32 -9 33 -11 28 -49 -7 -54 -41 -119 -84 -162 -60 -61 -202 -123 -363
-159 -25 -5 -81 -18 -125 -29 -44 -10 -249 -52 -455 -93 -206 -41 -418 -85
-470 -96 -52 -12 -110 -23 -129 -26 -19 -2 -64 -11 -100 -20 -123 -28 -306
-54 -385 -54 -86 0 -182 26 -246 65 -36 22 -110 94 -110 106 0 4 11 14 25 23
13 9 43 41 66 71 58 77 74 78 157 16 134 -99 260 -86 360 37 46 56 74 61 128
22 61 -44 106 -60 164 -60 72 0 126 28 184 95 42 49 52 56 75 50 14 -4 28 -10
31 -15 3 -4 27 -20 54 -34 39 -21 63 -26 115 -26 82 0 132 22 186 80 22 24 52
56 67 72 35 37 64 36 141 -4 54 -28 72 -32 137 -33 58 0 84 5 115 22 53 28
107 86 138 148 51 102 100 122 205 84z m-6101 -221 c5 -7 20 -39 32 -70 27
-68 43 -83 96 -92 64 -11 75 -16 75 -35 0 -24 -34 -53 -98 -85 -43 -22 -61
-39 -94 -92 -22 -35 -42 -64 -44 -64 -2 0 -15 21 -29 48 -34 66 -43 75 -105
112 -72 44 -90 60 -90 80 0 18 31 34 90 46 46 8 57 18 87 78 26 53 51 86 63
86 4 0 12 -6 17 -12z m6823 -164 l25 -24 0 -271 0 -271 -33 -29 c-37 -33 -57
-35 -109 -14 -82 34 -310 225 -384 322 -79 101 -53 147 106 188 55 14 131 43
172 65 91 49 152 71 178 63 11 -3 31 -16 45 -29z m-3290 -163 c43 -1 46 -3 72
-49 30 -53 99 -123 167 -167 42 -28 42 -29 19 -41 -13 -8 -30 -13 -39 -14 -25
0 -82 -60 -101 -105 -9 -22 -21 -89 -27 -150 -7 -60 -23 -211 -37 -335 -13
-124 -26 -252 -28 -286 -6 -80 17 -131 71 -161 39 -22 49 -23 307 -23 286 0
306 3 340 52 23 32 20 104 -4 138 -32 45 -72 52 -258 49 l-167 -4 4 75 c2 41
5 78 8 83 2 4 69 7 149 7 166 0 193 8 220 66 16 33 16 41 3 77 -25 72 -50 82
-207 84 l-137 2 2 72 c1 40 5 79 7 86 4 10 42 13 164 13 120 0 169 4 196 15
74 31 101 159 42 197 -6 4 -8 9 -5 12 5 5 160 39 239 52 14 3 48 9 75 14 79
16 98 20 135 26 19 3 72 14 117 25 44 10 96 21 115 23 18 3 64 12 103 21 38 9
81 18 95 20 14 2 36 6 50 9 14 3 36 8 50 11 65 14 78 16 115 20 22 3 54 7 72
9 115 16 227 21 438 21 l239 0 7 -33 c9 -46 51 -106 136 -193 40 -41 70 -79
66 -84 -5 -4 -3 -5 3 -2 6 3 28 -10 50 -29 42 -37 188 -145 221 -162 37 -20
108 -42 137 -42 41 0 106 20 141 44 81 55 98 110 90 294 -6 139 -5 140 17 145
19 5 312 11 355 8 17 -1 25 -55 43 -281 12 -157 16 -317 8 -325 -3 -4 -77 -8
-163 -10 -86 -2 -166 -7 -177 -11 -11 -3 -26 -22 -34 -41 -13 -31 -13 -38 1
-59 20 -31 33 -34 220 -36 l160 -3 -3 -100 c-3 -94 -6 -144 -17 -240 -4 -36
-7 -57 -20 -165 -3 -19 -7 -54 -11 -78 l-6 -43 -582 3 -581 3 -70 35 c-86 43
-164 47 -236 12 -43 -21 -53 -21 -844 -26 -440 -2 -1047 -9 -1350 -15 -302 -5
-721 -12 -930 -15 -209 -4 -478 -11 -598 -18 l-217 -12 -28 26 c-36 34 -65 48
-97 48 -43 0 -98 -28 -131 -67 l-32 -36 -183 -8 c-101 -5 -283 -13 -404 -19
-282 -13 -1283 -25 -1356 -16 -46 6 -58 11 -72 35 -24 41 -79 64 -139 59 -40
-4 -56 -12 -87 -42 -43 -42 -52 -43 -273 -24 -136 11 -138 12 -187 48 -102 77
-269 90 -394 33 -45 -21 -75 -28 -107 -26 -93 5 -266 14 -282 14 -21 0 -40 78
-42 172 -1 15 -3 27 -6 27 -3 0 -6 8 -6 18 -1 9 -4 49 -8 87 -9 95 -17 219
-19 280 l-2 50 135 3 c121 2 137 5 157 24 30 28 31 78 2 104 -18 16 -38 18
-157 19 l-137 1 -1 69 c0 39 1 73 3 76 1 4 5 74 8 155 4 140 7 180 20 280 l6
42 307 6 c169 3 438 8 597 11 160 3 383 8 496 11 113 4 215 3 227 0 12 -4 35
-32 52 -62 69 -119 169 -145 260 -67 22 19 50 54 62 77 11 22 25 44 31 48 15
9 239 17 662 23 598 9 568 10 660 -23 411 -151 576 -212 607 -225 l38 -16 -3
-125 c-1 -79 2 -126 8 -126 6 0 5 -3 -1 -8 -6 -4 -11 -14 -11 -22 0 -16 -10
-237 -19 -452 -4 -75 -4 -152 0 -171 15 -83 122 -132 196 -90 62 35 72 72 83
292 6 108 12 198 13 200 6 7 36 -22 87 -84 130 -158 181 -192 248 -165 39 17
54 31 158 153 45 53 87 97 92 97 5 0 9 -60 10 -132 1 -275 12 -324 78 -357 51
-27 95 -27 138 0 67 42 67 39 64 483 -1 219 -5 406 -8 415 -13 35 -57 84 -89
97 -43 18 -98 18 -132 0 -35 -18 -121 -113 -249 -276 -28 -36 -63 -76 -77 -89
l-26 -24 -20 26 c-11 14 -46 57 -78 95 -105 127 -112 136 -109 146 2 6 17 14
35 18 37 10 72 51 72 87 0 14 -23 83 -52 154 -28 70 -49 129 -47 131 2 2 29 0
59 -5 127 -18 296 -7 420 29 47 13 381 31 490 26 14 -1 45 -2 70 -3z m2537
-1567 c182 -62 450 -339 582 -603 127 -251 194 -625 163 -906 -15 -132 -35
-188 -80 -225 -87 -72 -165 -13 -142 108 14 77 12 275 -4 412 -30 250 -103
451 -250 687 -69 111 -209 258 -344 358 -100 74 -114 97 -87 139 29 44 89 55
162 30z m-7253 -39 c73 -19 141 -64 186 -122 97 -126 120 -151 173 -182 l57
-34 0 -51 c0 -94 61 -166 141 -166 38 0 39 -1 39 -38 0 -21 -9 -87 -19 -146
-19 -103 -22 -110 -75 -179 -73 -96 -111 -179 -126 -278 -14 -91 -19 -89 -46
23 l-18 78 29 107 c40 146 40 255 2 329 -52 103 -176 184 -332 218 -168 37
-223 65 -255 132 -26 52 -25 126 0 183 11 24 20 53 20 66 0 28 25 50 70 63 51
15 88 14 154 -3z m3041 -52 c14 -32 33 -64 42 -70 9 -7 43 -13 75 -13 51 0 58
-2 58 -20 0 -11 -18 -31 -46 -51 l-47 -32 6 -65 c9 -89 -2 -101 -58 -62 -53
37 -74 37 -131 4 -24 -14 -49 -24 -56 -21 -9 2 -13 27 -13 78 l0 74 -44 21
c-92 44 -87 84 10 84 63 0 78 9 105 63 22 42 44 67 61 67 7 0 25 -26 38 -57z
m3701 32 c53 -14 114 -25 135 -25 37 0 39 -2 65 -56 23 -49 36 -63 103 -105
117 -74 185 -135 286 -254 405 -477 428 -1282 51 -1805 -87 -122 -197 -249
-247 -289 -24 -19 -36 -26 -26 -15 9 12 14 23 11 27 -3 3 -9 21 -14 40 -6 30
-5 35 9 29 13 -5 14 -3 3 10 -10 12 -9 18 3 28 10 9 15 9 15 1 0 -6 5 -11 11
-11 8 0 8 4 -1 15 -10 12 -6 22 19 54 17 21 31 41 31 44 0 3 23 38 50 78 28
40 50 79 50 86 0 7 4 13 9 13 15 0 89 173 141 331 84 256 86 564 4 839 -30
100 -118 287 -179 380 -149 226 -378 412 -630 510 -33 13 -70 30 -83 38 l-23
15 22 23 c29 31 63 31 185 -1z m-6020 -23 c6 -4 22 -33 37 -64 l26 -58 59 0
c78 0 95 -18 50 -52 -18 -14 -44 -30 -56 -37 -21 -11 -24 -19 -22 -74 1 -34 2
-68 1 -74 -2 -19 -39 -16 -70 6 -47 34 -74 35 -131 6 -73 -37 -77 -30 -54 97
6 35 4 38 -45 70 -51 33 -64 61 -35 72 9 3 42 6 74 6 l59 0 42 55 c43 57 47
60 65 47z m7747 2 c25 -5 37 -12 37 -23 -1 -22 -39 -100 -40 -80 0 24 -29 27
-265 28 -115 1 -284 4 -375 8 -155 6 -167 7 -197 31 -18 13 -33 28 -33 33 0
10 814 12 873 3z m-4666 -42 c32 -18 35 -38 18 -152 -14 -96 -43 -312 -65
-485 -5 -38 -20 -149 -34 -245 -43 -300 -76 -551 -86 -655 -5 -55 -12 -117
-16 -137 l-6 -38 -69 -2 c-38 -1 -77 -2 -86 -2 -16 -1 -18 8 -17 64 0 36 4 92
8 126 9 67 -14 186 -59 296 -13 32 -31 84 -40 115 -16 57 -89 212 -104 223
-15 10 -71 99 -71 112 0 7 20 94 44 193 24 99 52 220 62 270 17 82 22 93 61
131 48 47 57 74 51 144 -5 47 -4 49 21 53 66 9 367 1 388 -11z m-4174 -20 c-5
-15 -8 -65 -8 -112 0 -100 20 -151 85 -216 53 -54 119 -88 210 -109 142 -32
209 -55 251 -88 80 -60 109 -145 84 -239 -8 -29 -23 -84 -32 -122 l-17 -68
-51 5 c-71 7 -165 41 -229 82 -30 19 -61 35 -69 35 -22 0 -28 -39 -11 -71 36
-70 133 -126 272 -155 67 -14 85 -22 92 -38 31 -82 81 -169 133 -228 l59 -70
-26 -51 c-54 -110 -69 -268 -38 -429 5 -27 6 -48 3 -48 -3 0 -18 8 -32 18
-143 97 -200 195 -225 384 -18 135 -37 175 -122 253 -182 166 -207 202 -270
391 -17 50 -68 164 -114 255 -113 222 -132 281 -126 407 5 115 28 176 62 166
16 -4 18 -3 7 5 -21 14 5 43 33 36 12 -3 15 -2 8 1 -22 10 5 31 43 32 34 1 35
0 28 -26z m4610 14 c48 -9 76 -21 96 -40 15 -14 31 -23 36 -19 4 5 5 3 1 -4
-3 -6 -2 -15 4 -18 28 -17 129 -259 159 -381 27 -104 44 -263 37 -336 -5 -60
-46 -174 -78 -221 -16 -22 -20 -44 -19 -118 0 -50 3 -94 5 -98 5 -8 51 -425
81 -746 3 -33 8 -67 10 -75 6 -21 58 -678 70 -875 12 -210 17 -274 26 -350 13
-111 11 -299 -3 -330 -13 -28 -2 -27 -208 -25 -101 1 -127 4 -137 16 -15 21
-22 99 -28 324 -2 102 -9 244 -14 315 -6 72 -13 173 -16 225 -3 52 -10 160
-16 240 -5 80 -20 399 -34 710 -22 500 -38 751 -50 770 -2 4 -33 161 -69 351
-110 582 -121 660 -94 687 16 16 154 15 241 -2z m2122 -49 c108 -28 240 -78
320 -122 195 -108 420 -305 413 -361 -2 -16 -30 -42 -88 -83 -118 -84 -322
-224 -439 -301 -54 -36 -206 -137 -337 -224 -403 -268 -532 -344 -744 -435
-52 -23 -104 -46 -115 -51 -11 -5 -72 -29 -135 -53 -249 -95 -310 -98 -390
-18 -72 72 -110 208 -110 399 0 245 77 480 233 711 62 91 236 268 327 333 127
90 329 177 490 212 110 23 129 24 310 21 137 -3 182 -7 265 -28z m-4394 -11
c25 -8 73 -28 107 -45 59 -30 67 -31 186 -31 190 0 287 -39 372 -150 30 -39
56 -59 109 -85 91 -44 157 -109 184 -180 12 -31 21 -63 21 -71 0 -8 19 -32 41
-53 37 -34 42 -45 47 -92 4 -45 16 -70 70 -154 92 -139 126 -239 127 -366 0
-94 -1 -98 -42 -177 l-42 -81 30 -65 c19 -40 33 -90 36 -126 l6 -59 -110 -108
c-61 -60 -118 -123 -127 -141 -22 -42 -36 -41 -36 3 0 19 4 35 9 35 20 0 104
87 126 131 27 52 31 102 15 160 -8 30 -6 44 12 85 30 65 30 152 1 217 -22 46
-22 49 -6 113 14 57 15 75 4 127 -7 33 -20 72 -28 86 -30 48 -97 112 -155 147
-54 33 -58 38 -58 73 0 85 -65 196 -146 250 -48 31 -84 45 -146 55 -30 6 -39
12 -48 40 -16 49 -76 113 -134 144 -82 43 -318 59 -399 28 l-47 -18 -24 29
c-13 16 -46 40 -72 53 -43 22 -62 25 -149 25 -91 0 -106 -3 -165 -31 -36 -17
-85 -52 -109 -76 -42 -43 -47 -46 -115 -52 -189 -17 -403 -198 -431 -365 -6
-35 -13 -44 -59 -70 -74 -41 -171 -149 -185 -206 -17 -67 -13 -154 9 -222 l21
-61 -34 -63 c-44 -82 -53 -142 -32 -214 14 -51 14 -59 0 -103 -11 -32 -14 -61
-10 -92 8 -52 50 -134 81 -159 18 -15 21 -24 17 -62 -7 -63 11 -120 56 -170
27 -31 42 -60 50 -97 15 -72 31 -100 88 -153 45 -43 75 -58 144 -73 18 -4 29
-14 33 -31 17 -66 129 -145 206 -145 34 0 50 -8 88 -40 26 -21 67 -46 91 -55
55 -19 144 -19 196 1 66 26 81 27 116 8 22 -12 60 -19 109 -20 65 -3 81 0 120
23 39 23 57 27 135 27 111 1 170 26 218 92 24 32 41 45 67 49 102 18 183 72
222 149 11 23 38 59 58 82 21 23 41 55 45 72 5 26 13 34 48 44 23 6 46 15 52
20 37 32 20 -11 -62 -163 -83 -153 -210 -262 -410 -349 -117 -52 -236 -84
-384 -105 -126 -17 -347 -20 -467 -5 -142 18 -325 92 -406 166 -22 19 -81 55
-131 80 -112 54 -208 132 -269 217 -55 77 -77 127 -104 236 -12 45 -37 108
-56 139 -56 93 -80 189 -81 317 0 123 14 177 70 280 l34 61 -31 62 c-27 54
-31 73 -31 145 0 104 23 164 103 269 74 98 75 99 89 182 29 167 119 268 334
376 16 8 40 33 54 57 13 23 48 64 77 90 70 65 155 94 295 103 58 4 117 12 131
19 86 40 279 49 381 17z m2969 -11 c18 -34 6 -70 -29 -85 -34 -14 -64 -2 -82
31 -9 17 -7 26 8 48 19 25 57 41 79 34 6 -2 17 -15 24 -28z m3375 -95 c17 -4
24 -8 16 -9 -11 -1 -11 -4 -1 -16 13 -16 6 -51 -18 -77 -16 -19 -67 -24 -77
-8 -4 6 -9 8 -13 6 -4 -2 -8 12 -10 32 -2 25 4 42 20 59 22 24 33 26 83 13z
m-105 -14 c0 -2 -7 -7 -16 -10 -8 -3 -12 -2 -9 4 6 10 25 14 25 6z m-6438
-196 c33 -10 52 -26 125 -115 27 -31 44 -28 112 16 52 34 114 39 163 13 26
-13 38 -14 68 -5 51 15 92 5 137 -34 36 -31 38 -36 43 -106 5 -69 7 -74 32
-83 21 -7 35 -5 61 8 31 17 37 18 89 2 99 -29 176 -140 149 -217 -15 -42 -14
-84 2 -96 6 -5 32 -15 57 -22 95 -28 145 -68 178 -144 25 -59 9 -151 -34 -195
-21 -20 -18 -31 26 -78 36 -39 40 -49 40 -94 0 -48 -11 -74 -65 -146 -7 -10
-6 -20 2 -31 40 -56 44 -72 31 -115 -12 -41 -54 -78 -89 -78 -9 0 -28 17 -41
38 -21 31 -56 56 -126 88 -2 1 8 37 21 80 18 59 28 80 43 83 30 5 44 21 44 50
0 33 -17 51 -47 51 -18 0 -23 5 -23 28 0 15 -7 60 -17 101 l-17 73 42 37 c50
43 57 81 18 106 -22 15 -27 15 -58 -1 -18 -9 -37 -22 -41 -28 -5 -7 -12 -5
-23 9 -8 11 -42 58 -76 105 -34 47 -65 87 -70 88 -16 7 -8 22 21 36 35 18 43
38 31 71 -13 33 -66 43 -113 20 l-36 -17 -58 39 c-90 60 -148 92 -216 118
l-62 23 0 41 c0 46 -14 61 -57 61 -22 0 -32 -9 -50 -40 -13 -22 -28 -38 -35
-36 -7 3 -53 6 -103 7 l-90 2 -22 38 c-19 34 -26 39 -58 39 -29 0 -40 -5 -50
-24 -7 -14 -10 -35 -7 -48 5 -21 -1 -26 -70 -52 -41 -15 -117 -56 -167 -90
l-91 -62 -37 14 c-44 17 -61 12 -84 -23 -16 -25 -16 -27 5 -55 11 -16 21 -32
21 -35 0 -2 -19 -30 -42 -60 -37 -47 -48 -55 -76 -55 -40 0 -100 -26 -124 -54
-21 -22 -22 -30 -7 -57 8 -17 19 -20 57 -18 26 1 46 -2 45 -7 -1 -5 -12 -36
-24 -69 -12 -33 -27 -82 -33 -110 -10 -44 -16 -52 -51 -69 -74 -34 -93 -67
-58 -101 12 -13 26 -15 55 -11 l38 6 0 -58 c0 -58 0 -58 -50 -96 -57 -44 -71
-77 -45 -106 23 -25 50 -25 86 0 l28 21 16 -30 c22 -43 19 -74 -10 -101 -27
-25 -33 -68 -13 -88 15 -15 60 -16 75 -1 8 8 18 0 37 -27 14 -21 26 -43 26
-48 0 -5 -16 -26 -35 -47 -73 -81 -23 -148 62 -83 47 36 61 20 33 -35 -27 -51
-21 -85 20 -106 53 -27 69 -19 79 42 l6 32 45 -30 c25 -17 71 -44 103 -60 l57
-29 -6 -42 c-8 -47 10 -68 58 -68 22 0 32 7 45 35 l16 34 111 -6 c80 -4 128
-1 174 10 58 13 63 13 56 -2 -4 -9 -9 -29 -12 -45 -5 -33 9 -46 53 -46 33 0
65 38 100 118 15 35 39 59 119 118 83 62 102 72 105 57 11 -58 74 -71 115 -22
28 33 29 36 45 147 30 195 159 292 288 217 52 -31 73 -69 73 -132 0 -74 -28
-102 -110 -109 -77 -8 -90 -20 -90 -84 0 -51 -18 -76 -59 -82 -16 -2 -27 -12
-32 -28 -3 -14 -12 -44 -18 -67 -10 -37 -18 -45 -65 -68 -47 -23 -62 -26 -108
-20 -52 7 -54 6 -67 -22 -38 -81 -47 -96 -61 -100 -8 -2 -23 -9 -32 -14 -28
-14 -65 -11 -112 12 l-44 20 -39 -41 c-31 -33 -47 -42 -90 -49 -29 -4 -55 -5
-59 -2 -5 6 -10 7 -36 10 -7 1 -30 17 -51 36 -21 19 -42 35 -48 35 -5 0 -26
-18 -48 -40 -38 -39 -44 -41 -126 -45 -51 -2 -84 15 -127 66 -41 49 -42 49
-92 45 -28 -2 -62 1 -76 7 -14 6 -28 10 -32 9 -14 -3 -53 60 -63 101 -9 37
-14 42 -40 45 -142 14 -225 92 -208 196 4 28 1 35 -23 51 -16 10 -34 24 -40
30 -37 36 -45 105 -18 157 15 28 14 31 -5 49 -11 10 -23 19 -26 19 -3 0 -24
19 -47 42 -38 39 -40 43 -36 93 3 32 13 64 26 82 l22 31 -25 44 c-44 77 -26
167 49 237 42 41 45 59 11 99 -33 39 -45 74 -45 129 0 90 81 198 172 231 75
26 82 35 84 102 3 74 31 136 83 183 50 45 120 86 175 102 l45 14 -6 -69 c-7
-81 3 -100 53 -100 38 0 48 14 59 80 26 167 204 292 357 250z m5413 -327 c69
-105 128 -246 156 -378 28 -128 31 -344 5 -482 -52 -284 -202 -557 -427 -780
-233 -230 -452 -351 -723 -400 -81 -14 -342 -19 -395 -7 -15 4 -87 66 -176
154 -144 141 -247 230 -267 230 -18 0 -118 52 -118 61 0 6 5 7 10 4 6 -3 10 1
10 10 0 11 -5 15 -14 12 -8 -3 -18 5 -25 19 -6 14 -45 79 -86 144 -40 65 -85
141 -99 168 l-25 50 41 7 c23 4 87 24 142 45 162 60 146 62 146 -18 0 -37 7
-92 16 -121 28 -96 124 -171 217 -171 31 0 49 -6 61 -19 10 -11 48 -40 84 -64
171 -114 425 -170 629 -138 89 14 237 70 301 112 24 16 46 29 49 29 12 0 141
107 190 158 69 70 165 215 193 288 42 113 52 181 47 314 -4 101 -10 141 -32
207 l-27 83 21 49 c42 99 23 191 -60 285 -22 25 -38 49 -35 54 2 4 31 25 62
47 32 22 66 48 76 58 24 23 33 22 53 -10z m-5140 -87 c33 -9 101 -36 150 -61
239 -118 421 -363 455 -614 19 -140 -25 -288 -99 -329 -21 -12 -56 -42 -79
-66 -59 -64 -79 -107 -106 -228 -5 -22 -12 -28 -34 -28 -40 -1 -97 -31 -187
-99 -99 -77 -178 -115 -275 -134 -308 -60 -633 144 -740 467 -42 126 -54 191
-54 301 1 113 36 274 81 367 31 64 110 177 167 236 73 78 241 172 349 197 81
18 290 13 372 -9z m4852 -123 c36 -24 83 -91 83 -120 0 -34 -26 -80 -50 -88
-13 -4 -33 2 -55 15 -20 12 -42 20 -49 17 -8 -3 -18 -35 -24 -77 -15 -98 -50
-154 -126 -199 -47 -28 -73 -36 -124 -39 -77 -5 -93 7 -85 66 3 23 -1 44 -10
56 -13 18 -19 19 -53 8 -22 -6 -79 -45 -127 -86 -49 -40 -106 -79 -127 -85
-43 -13 -90 -14 -107 -3 -16 10 622 437 649 435 10 -1 16 2 14 6 -10 16 94 89
117 83 4 -1 7 2 7 7 0 5 8 12 18 14 9 3 18 5 20 6 1 0 14 -7 29 -16z m1293
-50 c-11 -17 -11 -17 -6 0 3 10 6 24 7 30 0 9 2 9 5 0 3 -7 0 -20 -6 -30z
m-4250 -68 c0 -8 -7 -15 -15 -15 -16 0 -20 12 -8 23 11 12 23 8 23 -8z m56 0
c-3 -8 -1 -15 4 -15 6 0 10 -11 10 -24 0 -22 -5 -24 -81 -33 -78 -9 -80 -8
-75 12 3 11 6 27 6 35 0 9 9 16 20 16 11 0 20 -6 20 -13 0 -21 38 -15 45 6 3
11 16 22 28 24 12 2 24 5 26 6 2 0 1 -6 -3 -14z m4141 -32 c-3 -10 -5 -4 -5
12 0 17 2 24 5 18 2 -7 2 -21 0 -30z m-4113 -192 c16 -17 21 -37 24 -106 l4
-85 -59 -1 c-98 -2 -118 -10 -118 -44 l0 -30 80 -8 c43 -4 80 -9 82 -10 1 -2
3 -35 4 -74 1 -56 5 -70 15 -66 8 3 14 1 14 -5 0 -5 -7 -12 -15 -16 -8 -3 -15
-10 -15 -15 0 -6 8 -7 18 -4 15 6 15 5 3 -10 -9 -11 -10 -17 -2 -17 6 0 11
-14 11 -31 0 -16 -4 -28 -9 -24 -5 3 -12 1 -16 -5 -3 -5 3 -10 13 -10 20 0 22
-11 14 -122 l-2 -27 -107 -3 -108 -3 0 -35 0 -35 102 -5 c56 -3 105 -8 109
-12 4 -5 0 -8 -9 -8 -17 0 -24 -30 -10 -43 8 -9 11 -38 17 -184 3 -90 8 -128
20 -145 20 -28 20 -42 1 -34 -9 3 -15 0 -15 -8 0 -8 6 -16 12 -18 7 -3 13 -19
14 -36 1 -23 -3 -32 -15 -32 -14 -1 -14 -2 2 -14 9 -7 17 -21 17 -31 0 -14 -3
-15 -15 -5 -9 8 -15 8 -15 2 0 -6 6 -13 13 -16 10 -5 10 -7 0 -12 -16 -7 -17
-60 -2 -70 8 -4 7 -9 -2 -15 -11 -7 -9 -9 6 -10 53 -3 -37 -17 -116 -18 -88
-1 -109 -9 -109 -43 0 -28 41 -38 159 -38 l109 0 6 -53 c10 -88 29 -676 23
-712 -6 -39 -28 -65 -74 -89 -24 -12 -33 -13 -36 -3 -3 7 -6 6 -6 -5 -2 -34
-156 -35 -228 -1 -18 8 -46 31 -63 49 l-30 35 0 189 0 190 41 6 c33 6 40 10
37 28 -2 16 -10 21 -36 21 -23 0 -34 5 -38 20 -8 23 5 654 15 710 6 40 7 40
56 45 45 5 50 7 50 30 0 23 -4 25 -48 28 -30 2 -50 8 -53 17 -5 13 19 580 31
725 2 30 7 93 10 140 9 115 19 150 56 188 53 54 141 65 183 23z m1787 -355
c-80 -81 -185 -125 -230 -97 -9 6 19 25 98 64 61 31 111 52 111 49 0 -4 4 -2
8 4 11 16 55 44 61 39 3 -3 -19 -30 -48 -59z m785 19 c11 -27 -28 -104 -81
-162 -78 -87 -241 -162 -265 -122 -9 13 14 49 30 49 12 0 116 64 152 94 18 14
53 55 78 91 44 63 75 81 86 50z m-2529 -37 c-3 -8 -6 -5 -6 6 -1 11 2 17 5 13
3 -3 4 -12 1 -19z m-482 -248 c0 -20 -109 -72 -156 -75 -61 -3 -165 -82 -243
-184 -49 -65 -146 -230 -146 -250 0 -7 -11 -26 -25 -43 -39 -47 -33 -77 23
-115 67 -44 138 -79 229 -109 104 -35 115 -41 111 -67 -3 -19 -9 -22 -43 -19
-45 3 -195 46 -239 69 -16 9 -56 35 -89 59 l-60 43 -13 -24 c-18 -36 -89 -228
-116 -315 -16 -52 -28 -76 -40 -78 -14 -3 -18 3 -18 28 0 63 52 230 117 380
11 25 31 70 44 100 26 59 121 227 183 324 58 91 180 205 261 245 91 44 111 50
170 48 37 -1 50 -6 50 -17z m3115 -86 c11 -26 20 -56 20 -69 0 -45 -198 -165
-331 -201 -91 -24 -263 -25 -354 0 -76 20 -225 84 -225 97 0 4 24 15 53 25 28
9 75 28 103 41 49 23 52 23 110 8 32 -9 100 -19 149 -22 148 -9 256 26 381
121 32 25 62 45 66 46 4 0 16 -21 28 -46z m-1697 -224 c69 -112 72 -120 44
-120 -29 -1 -126 -41 -165 -69 l-32 -22 6 44 c4 28 0 75 -11 123 l-17 78 26
19 c15 10 34 33 42 50 l16 30 19 -24 c11 -13 43 -62 72 -109z m179 -256 c24
-10 54 -28 69 -40 14 -13 32 -24 41 -24 24 0 48 -11 48 -21 0 -6 -8 -5 -19 0
-14 8 -20 7 -25 -5 -4 -10 -2 -13 6 -8 7 5 9 0 6 -14 -4 -13 1 -27 13 -38 17
-15 59 -87 59 -101 0 -3 -7 0 -15 7 -9 7 -19 9 -23 5 -4 -4 -1 -10 6 -12 6 -3
12 -11 12 -18 0 -8 8 -18 17 -24 10 -5 15 -13 11 -16 -4 -4 -14 0 -23 9 -9 9
-18 16 -20 16 -2 0 -24 -20 -49 -44 -51 -49 -53 -75 -5 -93 16 -6 27 -8 24 -3
-7 11 50 51 60 42 5 -4 5 -1 1 6 -11 19 13 45 30 32 9 -8 18 -8 33 2 11 7 24
8 28 4 4 -5 2 -11 -4 -13 -7 -3 -13 -9 -13 -14 0 -6 5 -7 11 -3 8 4 9 -1 5
-17 -3 -13 -3 -18 0 -11 3 6 13 12 22 12 12 0 13 -3 4 -12 -14 -14 -16 -32 -3
-24 9 6 81 -62 81 -78 0 -5 -13 2 -28 17 -16 15 -31 24 -35 20 -12 -12 -8 -21
13 -28 11 -4 17 -11 14 -17 -4 -7 -2 -8 4 -4 15 9 54 -35 46 -54 -3 -8 -7 -19
-8 -25 -1 -5 -5 -15 -9 -22 -4 -6 -2 -15 4 -18 6 -4 13 2 16 14 8 31 20 26 28
-11 4 -18 13 -36 19 -40 8 -6 7 -8 -1 -8 -7 0 -13 -5 -13 -10 0 -13 52 -1 62
14 4 6 11 7 15 2 4 -5 2 -11 -4 -13 -14 -5 -18 -33 -5 -33 4 0 18 -16 31 -36
19 -28 30 -35 48 -31 18 3 23 1 19 -9 -3 -8 1 -14 9 -14 12 0 12 5 4 26 -5 15
-7 29 -4 32 3 3 11 -9 17 -26 7 -18 16 -32 20 -32 4 0 8 -6 8 -13 0 -7 9 -18
20 -25 11 -7 17 -18 14 -27 -4 -10 0 -15 10 -15 9 0 16 5 16 10 0 6 9 10 20
10 11 0 20 -4 20 -10 0 -5 -7 -7 -15 -4 -8 3 -17 0 -20 -7 -3 -9 -25 -15 -58
-17 -28 -2 -55 -8 -58 -15 -5 -8 -26 -11 -59 -8 -29 2 -48 6 -42 10 5 3 12 24
13 46 3 33 1 40 -13 39 -10 -1 -16 2 -13 6 7 11 -15 27 -46 35 -19 5 -32 0
-54 -22 -16 -15 -25 -22 -21 -15 6 10 1 11 -18 6 -24 -6 -26 -4 -26 27 -1 30
-2 32 -13 17 -9 -11 -18 -14 -27 -8 -12 8 -12 12 -2 22 7 7 17 14 23 14 5 1
14 2 19 3 22 2 9 21 -15 21 -14 0 -25 -4 -25 -10 0 -16 -22 -12 -35 7 -14 19
-35 10 -35 -16 0 -27 -27 -48 -43 -32 -9 10 -8 11 6 6 12 -5 17 -2 17 9 0 10
-6 13 -16 9 -12 -4 -14 0 -8 23 6 25 5 27 -8 17 -8 -7 -19 -9 -24 -5 -4 4 -2
-1 5 -10 11 -15 11 -19 -3 -24 -8 -3 -27 -2 -41 3 l-25 8 39 58 c24 34 42 52
45 45 3 -7 3 -2 0 12 -7 28 -18 37 -53 46 -19 6 -29 -1 -55 -31 -69 -85 -72
-87 -90 -70 -9 9 -16 13 -16 8 0 -4 -4 -3 -8 3 -4 6 -16 16 -27 23 -20 12 -9
10 29 -5 16 -6 18 -3 14 23 -3 24 -1 30 11 25 10 -4 12 -1 7 7 -5 7 -17 10
-28 8 -18 -5 -18 -4 -4 18 20 30 20 73 1 116 -8 19 -14 28 -15 21 0 -8 -9 -25
-20 -39 -21 -27 -27 -73 -10 -73 6 0 10 -10 10 -21 0 -16 -5 -20 -19 -16 -15
4 -19 0 -16 -14 2 -11 0 -17 -5 -14 -4 3 -7 16 -5 30 2 20 -1 23 -11 14 -18
-15 -51 -2 -71 28 -24 36 -26 63 -7 84 9 10 14 24 11 31 -4 9 -6 8 -6 -3 -1
-21 -25 -31 -40 -16 -8 8 -11 6 -11 -9 0 -17 -2 -16 -20 6 -55 71 -67 216 -25
299 44 87 150 159 237 160 21 1 57 -6 80 -15z m1928 -13 c0 -5 -7 -11 -14 -14
-10 -4 -13 -1 -9 9 6 15 23 19 23 5z m-30 -66 c-7 -9 -15 -13 -19 -10 -3 3 1
10 9 15 21 14 24 12 10 -5z m-2960 -90 c0 -52 -3 -95 -7 -95 -5 0 -7 19 -6 42
1 24 2 67 2 96 1 28 3 52 6 52 3 0 5 -43 5 -95z m1255 65 c3 -6 -1 -7 -9 -4
-18 7 -21 14 -7 14 6 0 13 -4 16 -10z m1635 -44 c0 -2 -7 -7 -16 -10 -8 -3
-12 -2 -9 4 6 10 25 14 25 6z m-1412 -181 c-5 -6 -33 19 -51 45 -9 13 -17 19
-17 12 0 -6 -5 -12 -11 -12 -5 0 -7 5 -4 11 4 6 -7 24 -24 41 -17 17 -31 34
-31 38 0 4 32 -24 70 -63 39 -38 70 -71 68 -72z m-168 61 c0 -2 -7 -6 -15 -10
-8 -3 -15 -1 -15 4 0 6 7 10 15 10 8 0 15 -2 15 -4z m0 -67 c0 -6 -4 -7 -10
-4 -5 3 -10 11 -10 16 0 6 5 7 10 4 6 -3 10 -11 10 -16z m200 -17 c0 -5 -7 -9
-15 -9 -8 0 -15 4 -15 9 0 4 7 8 15 8 8 0 15 -4 15 -8z m-3040 -49 c-1 -31
-32 -179 -39 -186 -16 -16 -138 -20 -201 -8 -34 7 -82 22 -108 33 l-47 21 115
37 c63 20 149 53 190 73 80 38 90 41 90 30z m2533 -77 c8 -20 -3 -56 -17 -56
-6 0 -12 9 -13 20 -1 12 3 18 9 14 6 -4 8 1 3 15 -7 23 10 30 18 7z m1127 -26
c18 -34 8 -73 -22 -90 -38 -21 -62 -5 -66 44 -2 27 2 42 15 52 27 20 61 17 73
-6z m-4156 -110 c135 -87 332 -128 457 -94 13 4 21 -13 38 -82 25 -98 56 -167
112 -241 l39 -53 -32 6 c-18 3 -51 12 -73 19 -22 7 -87 28 -145 45 -58 18
-109 36 -115 40 -5 3 -41 17 -80 30 -38 12 -108 40 -153 61 -46 22 -86 39 -89
39 -27 0 -453 232 -453 246 0 3 35 3 78 0 42 -3 133 1 202 8 69 7 131 14 139
15 8 0 42 -17 75 -39z m3022 -1 c19 -22 19 -22 -3 -8 -13 8 -23 17 -23 21 0
12 6 9 26 -13z m-1632 -42 c-1 -9 -2 -24 -3 -32 -1 -21 -53 -40 -173 -65 -138
-28 -268 -36 -354 -20 -84 15 -114 32 -114 65 0 29 4 29 100 15 94 -14 314 4
425 34 102 27 121 28 119 3z m2216 13 c0 -12 -17 -12 -45 0 -17 7 -15 9 13 9
17 1 32 -3 32 -9z m60 -40 c0 -5 -2 -10 -4 -10 -3 0 -8 5 -11 10 -3 6 -1 10 4
10 6 0 11 -4 11 -10z m26 -41 c3 -5 -3 -6 -13 -2 -16 6 -16 5 -5 -10 14 -17 9
-37 -10 -37 -5 0 -8 7 -4 15 3 8 -1 21 -9 29 -8 8 -15 17 -15 19 0 8 50 -5 56
-14z m-353 -56 c-6 -15 -23 -18 -23 -4 0 5 3 17 6 26 5 12 9 14 14 4 5 -7 6
-18 3 -26z m-98 -3 c3 -5 2 -10 -4 -10 -5 0 -13 5 -16 10 -3 6 -2 10 4 10 5 0
13 -4 16 -10z m520 0 c3 -5 -1 -10 -9 -10 -9 0 -16 5 -16 10 0 6 4 10 9 10 6
0 13 -4 16 -10z m-346 -49 c8 -5 -11 -8 -48 -7 -33 1 -63 5 -66 8 -9 9 99 8
114 -1z m399 -9 c6 -18 -15 -14 -22 4 -4 10 -1 14 6 12 6 -2 14 -10 16 -16z
m-358 -6 c0 -3 -4 -8 -10 -11 -5 -3 -10 -1 -10 4 0 6 5 11 10 11 6 0 10 -2 10
-4z m137 -28 c-3 -7 -5 -2 -5 12 0 14 2 19 5 13 2 -7 2 -19 0 -25z m-639 10
c28 -28 6 -98 -30 -98 -46 0 -77 67 -46 98 15 15 61 15 76 0z m622 -38 c0 -5
-8 -10 -17 -10 -15 0 -16 2 -3 10 19 12 20 12 20 0z m223 -27 c-7 -2 -19 -2
-25 0 -7 3 -2 5 12 5 14 0 19 -2 13 -5z m-196 -9 c-3 -3 -12 -4 -19 -1 -8 3
-5 6 6 6 11 1 17 -2 13 -5z m63 -10 c0 -2 -9 -4 -20 -4 -11 0 -20 4 -20 9 0 5
9 7 20 4 11 -3 20 -7 20 -9z m90 6 c11 -7 3 -10 -28 -10 -26 0 -41 4 -37 10 8
13 45 13 65 0z"/>
<path d="M6404 9367 c-39 -21 -46 -63 -16 -90 28 -26 69 -21 89 9 15 23 15 29
2 52 -17 31 -49 43 -75 29z"/>
<path d="M6837 9185 c-19 -23 -44 -39 -75 -47 -41 -12 -47 -17 -50 -43 -9 -79
123 -73 196 9 36 41 39 61 16 94 -22 31 -54 26 -87 -13z"/>
<path d="M6805 8844 c-32 -32 -10 -91 45 -119 28 -14 31 -14 50 5 25 25 25 45
0 80 -27 37 -74 54 -95 34z"/>
<path d="M6311 8843 c-7 -8 -11 -16 -8 -19 2 -2 10 2 17 11 17 20 9 27 -9 8z"/>
<path d="M6320 8780 c-8 -5 -12 -11 -9 -14 2 -3 11 -1 19 4 8 5 12 11 9 14 -2
3 -11 1 -19 -4z"/>
<path d="M3940 8751 c-24 -46 0 -91 49 -91 35 0 51 17 51 55 0 40 -16 55 -57
55 -22 0 -36 -6 -43 -19z"/>
<path d="M4133 8485 c-18 -20 -16 -60 3 -79 34 -35 104 -8 104 41 0 44 -78 72
-107 38z"/>
<path d="M4082 8157 c-12 -13 -22 -30 -22 -38 0 -27 31 -59 56 -59 29 0 64 32
64 60 0 25 -34 60 -58 60 -10 0 -28 -10 -40 -23z"/>
<path d="M5448 8888 c-27 -6 -48 -14 -48 -20 0 -5 -4 -7 -8 -4 -13 8 -103 -64
-137 -110 -69 -90 -87 -233 -44 -346 29 -78 102 -158 177 -195 50 -25 68 -28
152 -28 86 0 100 3 146 28 84 47 151 122 179 203 73 207 -24 408 -225 468 -59
18 -120 19 -192 4z"/>
<path d="M2949 8070 c-19 -44 -52 -69 -117 -86 -37 -10 -41 -13 -19 -13 33 -1
105 33 130 62 17 20 33 64 26 72 -2 2 -11 -14 -20 -35z"/>
<path d="M3280 7664 c0 -8 -13 -29 -29 -45 -32 -31 -82 -39 -124 -18 -21 10
-21 10 -3 -5 11 -9 39 -16 64 -16 35 0 49 6 73 29 25 25 40 71 24 71 -3 0 -5
-7 -5 -16z"/>
<path d="M2920 6657 c0 -27 -50 -61 -98 -68 l-47 -6 46 -2 c39 -1 52 4 78 28
27 25 42 61 26 61 -3 0 -5 -6 -5 -13z"/>
<path d="M4200 6339 c-21 -46 -59 -70 -127 -79 l-58 -7 51 -2 c38 -1 59 5 84
22 40 26 74 70 68 87 -2 6 -10 -3 -18 -21z"/>
<path d="M8576 7804 c-19 -18 -21 -65 -4 -82 27 -27 78 2 78 46 0 23 -25 52
-45 52 -7 0 -21 -7 -29 -16z"/>
<path d="M8674 7649 c-5 -8 -3 -10 6 -4 10 6 12 0 8 -24 -5 -34 -1 -37 25 -17
19 14 23 41 7 51 -6 4 -7 -1 -3 -12 6 -17 6 -17 -14 0 -16 14 -23 15 -29 6z"/>
<path d="M8695 7426 c-30 -45 22 -106 79 -92 47 12 47 83 0 104 -38 18 -62 14
-79 -12z"/>
<path d="M8808 7219 c-23 -13 -24 -95 -2 -127 20 -28 60 -29 75 -1 17 32 4
100 -21 121 -25 21 -29 21 -52 7z"/>
<path d="M8959 6937 c-65 -44 -62 -116 5 -103 61 12 113 67 101 106 -9 28 -62
27 -106 -3z"/>
<path d="M787 6232 c-18 -19 -21 -50 -11 -90 9 -31 53 -41 71 -17 19 27 17 89
-5 108 -24 22 -35 21 -55 -1z"/>
<path d="M1033 6214 c-20 -8 -15 -52 6 -73 23 -23 80 -36 116 -27 39 10 67 43
63 74 -3 23 -7 27 -33 25 -74 -7 -92 -7 -115 -1 -14 4 -31 4 -37 2z"/>
<path d="M1317 6102 c-45 -49 4 -113 61 -81 33 18 40 54 16 80 -22 24 -56 24
-77 1z"/>
<path d="M9387 6123 c-12 -12 -7 -50 8 -63 35 -29 93 21 65 55 -13 15 -61 20
-73 8z"/>
<path d="M3592 5563 c-39 -5 -75 -40 -194 -185 -44 -54 -88 -98 -97 -98 -9 1
-34 24 -56 52 -22 28 -49 61 -60 72 -11 12 -36 41 -54 65 -94 120 -266 87
-266 -50 0 -47 22 -88 82 -155 15 -16 40 -46 54 -65 15 -19 43 -52 63 -74 20
-22 43 -53 52 -68 17 -32 31 -10 -125 -203 -57 -71 -113 -149 -123 -173 -19
-41 -19 -45 -3 -88 22 -56 63 -83 126 -83 60 0 73 11 199 165 56 69 106 125
111 125 4 0 36 -35 71 -78 157 -195 176 -212 246 -212 74 0 152 83 138 147 -7
28 -109 166 -186 251 -63 69 -90 107 -90 129 0 11 17 40 38 64 211 243 261
329 224 391 -9 15 -20 28 -26 28 -5 0 -14 8 -21 17 -7 9 -18 17 -26 19 -8 1
-21 4 -29 6 -8 3 -30 3 -48 1z"/>
<path d="M7245 5550 c-33 -10 -85 -44 -85 -57 0 -6 -4 -13 -8 -15 -5 -1 -20
-33 -35 -71 -28 -70 -45 -108 -108 -245 -22 -46 -39 -86 -39 -88 0 -3 -87
-203 -136 -312 -41 -90 -48 -139 -26 -181 10 -20 33 -44 53 -53 80 -41 158
-10 210 85 l34 61 162 1 c149 1 163 0 169 -17 3 -10 10 -18 15 -18 5 0 9 -7 9
-16 0 -50 78 -114 139 -114 63 0 125 51 136 114 6 32 -20 107 -175 511 -58
152 -86 225 -106 285 -21 59 -81 129 -114 132 -53 4 -77 4 -95 -2z m55 -483
c0 -6 12 -39 26 -75 14 -35 23 -70 20 -78 -4 -10 -25 -14 -77 -14 l-72 0 7 39
c5 36 26 87 54 139 11 19 16 21 28 11 8 -6 14 -16 14 -22z"/>
<path d="M8199 5539 c-53 -19 -77 -73 -115 -255 -19 -93 -39 -187 -44 -209
-40 -185 -80 -396 -80 -423 0 -58 25 -101 72 -122 39 -18 67 -20 318 -20 301
0 308 1 347 59 40 59 23 129 -39 166 -26 15 -52 17 -212 14 l-181 -4 0 40 c1
22 17 110 37 195 70 302 91 409 85 450 -6 45 -43 99 -69 99 -10 1 -18 6 -18
11 0 14 -27 12 -33 -2 -4 -10 -6 -10 -6 0 -1 14 -25 14 -62 1z"/>
<path d="M994 5522 c-54 -35 -66 -76 -80 -292 -24 -360 -32 -579 -24 -616 27
-120 196 -140 252 -31 17 34 22 73 32 233 6 106 14 195 17 199 6 5 98 -98 162
-181 11 -14 39 -36 63 -50 79 -46 127 -21 255 137 44 55 86 98 91 97 7 -3 13
-42 15 -94 10 -281 14 -311 40 -351 13 -21 36 -44 51 -51 67 -31 153 3 187 74
16 35 17 56 1 428 -16 366 -18 393 -39 430 -42 77 -134 109 -205 72 -26 -14
-95 -92 -218 -246 -86 -108 -106 -130 -120 -130 -7 0 -35 28 -61 63 -97 128
-223 277 -255 300 -39 29 -124 34 -164 9z"/>
<path d="M2409 5529 c-15 -6 -39 -27 -53 -48 l-27 -38 3 -414 c3 -462 2 -455
73 -499 28 -17 46 -21 81 -17 59 6 92 30 116 84 20 45 20 58 13 444 l-7 399
-26 39 c-14 22 -36 44 -49 50 -29 13 -88 13 -124 0z"/>
<path d="M8880 4698 c-11 -12 -20 -28 -20 -36 0 -17 20 -55 34 -64 6 -4 101
-8 212 -8 197 0 201 0 222 23 26 27 28 54 6 85 -15 22 -19 22 -224 22 -202 0
-210 -1 -230 -22z"/>
<path d="M5575 771 c-33 -14 -56 -47 -61 -88 -6 -49 12 -84 57 -105 89 -44
190 53 145 141 -26 50 -89 73 -141 52z"/>
<path d="M8244 3439 c-4 -7 -3 -9 4 -5 5 3 13 0 15 -6 4 -9 6 -10 6 -1 1 17
-16 25 -25 12z"/>
<path d="M2740 3096 c-163 -45 -299 -171 -360 -333 -28 -75 -41 -213 -29 -305
19 -140 111 -293 232 -384 34 -26 61 -50 60 -55 -2 -5 4 -6 12 -3 8 4 26 -1
38 -9 80 -52 279 -64 390 -24 140 51 239 136 304 263 51 100 67 165 67 279 0
254 -163 478 -407 560 -60 20 -94 25 -169 24 -51 0 -113 -6 -138 -13z m323
-149 c181 -88 280 -265 264 -471 -7 -101 -48 -181 -133 -264 -36 -35 -70 -60
-76 -56 -7 4 -8 3 -4 -5 15 -24 -117 -61 -222 -62 -167 -2 -338 134 -398 315
-24 70 -26 90 -22 177 4 87 9 107 39 165 84 167 214 247 394 241 70 -2 90 -7
158 -40z"/>
<path d="M2870 2620 c-20 -20 -28 -83 -12 -106 10 -15 47 -34 67 -34 26 0 75
55 75 85 0 61 -87 98 -130 55z"/>
<path d="M5155 2287 c-4 -10 -5 -21 -1 -24 10 -10 18 4 13 24 -4 17 -4 17 -12
0z"/>
<path d="M5152 2220 c0 -19 2 -27 5 -17 2 9 2 25 0 35 -3 9 -5 1 -5 -18z"/>
<path d="M5010 1675 c-17 -20 -4 -52 25 -59 31 -8 53 1 60 25 9 27 -12 49 -45
49 -15 0 -33 -7 -40 -15z"/>
<path d="M5212 1145 c0 -16 2 -22 5 -12 2 9 2 23 0 30 -3 6 -5 -1 -5 -18z"/>
<path d="M5180 1109 c0 -5 5 -7 10 -4 6 3 10 8 10 11 0 2 -4 4 -10 4 -5 0 -10
-5 -10 -11z"/>
<path d="M5040 974 c-11 -13 -10 -19 7 -36 23 -22 49 -19 59 7 14 36 -41 60
-66 29z"/>
<path d="M4984 761 c-44 -27 -59 -73 -38 -118 22 -45 50 -63 97 -63 85 0 131
108 73 168 -32 33 -92 39 -132 13z"/>
<path d="M5165 499 c-12 -19 5 -23 22 -6 16 16 16 17 1 17 -9 0 -20 -5 -23
-11z"/>
<path d="M4950 491 c0 -6 4 -13 10 -16 6 -3 7 1 4 9 -7 18 -14 21 -14 7z"/>
<path d="M5120 480 c0 -5 5 -10 11 -10 5 0 7 5 4 10 -3 6 -8 10 -11 10 -2 0
-4 -4 -4 -10z"/>
<path d="M5048 463 c7 -3 16 -2 19 1 4 3 -2 6 -13 5 -11 0 -14 -3 -6 -6z"/>
<path d="M6150 1560 c0 -5 9 -10 21 -10 11 0 17 5 14 10 -3 6 -13 10 -21 10
-8 0 -14 -4 -14 -10z"/>
<path d="M6111 1533 c-12 -13 -11 -14 7 -8 18 5 21 3 15 -12 -6 -17 -5 -17 13
-1 10 9 28 18 39 21 11 2 8 3 -7 2 -16 -1 -28 2 -28 7 0 13 -24 8 -39 -9z"/>
<path d="M6095 1501 c-3 -5 -1 -12 5 -16 5 -3 10 1 10 9 0 18 -6 21 -15 7z"/>
<path d="M6066 1473 c-6 -14 -5 -15 5 -6 7 7 10 15 7 18 -3 3 -9 -2 -12 -12z"/>
<path d="M6148 1482 c-29 -6 -20 -26 20 -45 20 -9 30 -12 20 -4 -9 7 -18 22
-20 33 -2 12 -9 18 -20 16z"/>
<path d="M6278 1463 c7 -3 16 -2 19 1 4 3 -2 6 -13 5 -11 0 -14 -3 -6 -6z"/>
<path d="M6040 1424 c-12 -32 -13 -47 -1 -40 8 6 21 66 14 66 -2 0 -8 -12 -13
-26z"/>
<path d="M6075 1440 c3 -5 2 -10 -3 -10 -5 0 -14 -22 -19 -48 -7 -37 -6 -51 4
-60 10 -10 13 -9 14 5 0 11 2 13 6 5 4 -10 8 -9 19 5 16 21 18 61 4 83 -6 9
-5 17 3 22 8 5 3 8 -11 8 -13 0 -20 -4 -17 -10z"/>
<path d="M6160 1410 c0 -5 5 -10 11 -10 5 0 7 5 4 10 -3 6 -8 10 -11 10 -2 0
-4 -4 -4 -10z"/>
<path d="M6307 1383 c-4 -3 -2 -12 4 -20 9 -10 8 -13 -1 -13 -8 0 -11 -2 -8
-5 8 -9 58 13 58 25 0 6 -5 8 -10 5 -6 -4 -17 -2 -24 4 -7 6 -16 8 -19 4z"/>
<path d="M6021 1324 c0 -11 3 -14 6 -6 3 7 2 16 -1 19 -3 4 -6 -2 -5 -13z"/>
<path d="M6325 1320 c3 -5 8 -10 11 -10 2 0 4 5 4 10 0 6 -5 10 -11 10 -5 0
-7 -4 -4 -10z"/>
<path d="M6036 1283 c-6 -14 -5 -15 5 -6 7 7 10 15 7 18 -3 3 -9 -2 -12 -12z"/>
<path d="M6447 1293 c-3 -5 6 -9 20 -10 19 -1 22 1 12 8 -17 11 -26 11 -32 2z"/>
<path d="M6603 1168 c-31 -40 -14 -86 26 -73 30 9 48 49 31 70 -15 18 -44 20
-57 3z"/>
<path d="M6378 1153 c7 -3 16 -2 19 1 4 3 -2 6 -13 5 -11 0 -14 -3 -6 -6z"/>
<path d="M6280 1080 c0 -5 5 -10 10 -10 6 0 10 5 10 10 0 6 -4 10 -10 10 -5 0
-10 -4 -10 -10z"/>
<path d="M6563 1074 c-9 -23 18 -36 38 -18 22 19 36 18 44 -6 4 -11 15 -20 26
-20 11 0 17 5 14 10 -3 6 1 10 9 10 9 0 16 5 16 11 0 7 -11 8 -30 4 -19 -4
-30 -3 -30 4 0 6 -13 11 -30 11 -16 0 -30 -4 -30 -10 0 -5 -4 -10 -10 -10 -5
0 -7 7 -4 15 4 8 3 15 0 15 -4 0 -9 -7 -13 -16z"/>
<path d="M6255 1040 c-3 -5 -2 -10 4 -10 5 0 13 5 16 10 3 6 2 10 -4 10 -5 0
-13 -4 -16 -10z"/>
<path d="M6630 945 c-7 -9 -8 -15 0 -20 5 -3 10 -2 10 4 0 5 8 11 18 13 16 3
16 4 0 10 -9 4 -21 1 -28 -7z"/>
<path d="M6755 920 c3 -5 11 -10 16 -10 6 0 7 5 4 10 -3 6 -11 10 -16 10 -6 0
-7 -4 -4 -10z"/>
<path d="M6650 910 c0 -5 5 -10 10 -10 6 0 10 5 10 10 0 6 -4 10 -10 10 -5 0
-10 -4 -10 -10z"/>
<path d="M6848 893 c7 -3 16 -2 19 1 4 3 -2 6 -13 5 -11 0 -14 -3 -6 -6z"/>
<path d="M6830 862 c0 -12 23 -32 37 -32 7 0 13 5 13 10 0 6 -7 10 -15 10 -8
0 -15 5 -15 10 0 6 -4 10 -10 10 -5 0 -10 -4 -10 -8z"/>
<path d="M6905 850 c3 -5 10 -10 16 -10 5 0 9 5 9 10 0 6 -7 10 -16 10 -8 0
-12 -4 -9 -10z"/>
<path d="M6810 819 c0 -10 33 -29 50 -29 6 0 10 5 8 12 -5 14 -58 30 -58 17z"/>
<path d="M6945 820 c3 -5 8 -10 11 -10 2 0 4 5 4 10 0 6 -5 10 -11 10 -5 0 -7
-4 -4 -10z"/>
</g>
</svg>
